<?xml version="1.0" encoding="UTF-8" standalone="no"?>
<!-- Created with Inkscape (http://www.inkscape.org/) -->

<svg
   width="109.99999mm"
   height="230mm"
   viewBox="0 0 109.99999 230"
   version="1.1"
   id="svg5"
   xml:space="preserve"
   xmlns="http://www.w3.org/2000/svg"
   xmlns:svg="http://www.w3.org/2000/svg"><defs
     id="defs2" /><g
     id="layer1"
     style="display:inline"><path
       style="display:inline;fill:#ff4d3c;fill-opacity:1;stroke:#ff4d3c;stroke-width:1.265;stroke-linejoin:round;stroke-dasharray:none;stroke-opacity:1"
       d="m 89.340761,188.21459 c 4.47829,-25.25754 -9.0318,-31.69348 -9.0318,-31.69348 l 1.22316,-13.04923 c 0,0 23.034809,1.57202 7.80864,44.74271 z"
       id="path14535" /><path
       style="display:inline;fill:#ff4d3c;fill-opacity:1;stroke:#ff4d3c;stroke-width:1.265;stroke-linejoin:round;stroke-dasharray:none;stroke-opacity:1"
       d="m 20.65924,188.21439 c -4.47829,-25.25754 9.031801,-31.69348 9.031801,-31.69348 L 28.46788,143.47168 c 0,0 -23.0348107,1.57202 -7.80864,44.74271 z"
       id="path14535-6" /><path
       id="path5779"
       style="display:inline;fill:#f2f2f2;stroke-width:0.264583"
       d="m 54.482842,39.672035 c -0.17342,-7.42e-4 -0.34696,0.0015 -0.52089,0.0067 -0.34787,0.01058 -0.69611,0.03312 -1.04335,0.06511 -0.34724,0.03199 -0.69375,0.07378 -1.03715,0.124024 -0.34339,0.05025 -0.68376,0.108807 -1.02009,0.17415 -0.33633,0.06534 -0.66822,0.13718 -0.994254,0.214457 -0.326031,0.07728 -0.646084,0.159928 -0.958597,0.24598 -0.312515,0.08605 -0.617867,0.1755 -0.91364,0.267167 -0.295771,0.09167 -0.582024,0.185448 -0.857829,0.279569 -0.275804,0.09412 -0.541134,0.188739 -0.79375,0.282153 -0.252614,0.09342 -0.492619,0.185886 -0.718819,0.275436 -0.452399,0.179101 -0.848762,0.34728 -1.176155,0.49196 -0.327395,0.144679 -0.585634,0.265904 -0.762228,0.350882 -0.176322,0.08485 -0.270494,0.133176 -0.270784,0.133326 C 17.590386,107.22788 31.827898,169.47187 31.827898,169.47187 h 23.174294 23.174299 c 0,0 14.23751,-62.244 -11.587408,-126.888901 -2.91e-4,-1.5e-4 -0.0944,-0.04843 -0.27078,-0.133326 -0.176591,-0.08498 -0.43484,-0.206203 -0.76223,-0.350882 -0.3274,-0.14468 -0.72376,-0.31286 -1.17616,-0.49196 -0.226201,-0.08955 -0.46619,-0.182036 -0.718811,-0.275436 -0.25261,-0.09342 -0.517939,-0.188053 -0.79375,-0.282153 -0.2758,-0.09412 -0.56205,-0.187869 -0.85783,-0.279569 -0.295771,-0.09167 -0.60112,-0.181068 -0.91364,-0.267167 -0.312511,-0.08605 -0.63257,-0.16868 -0.958601,-0.24598 -0.32604,-0.07728 -0.657929,-0.149158 -0.994259,-0.214457 -0.33632,-0.06534 -0.6767,-0.12385 -1.02009,-0.17415 -0.3434,-0.05022 -0.6899,-0.09202 -1.03714,-0.124024 -0.34724,-0.032 -0.69548,-0.05451 -1.04335,-0.06511 -0.34786,-0.0102 -0.69499,-0.0093 -1.04025,0.0047 -0.17263,-0.007 -0.34593,-0.01063 -0.51935,-0.01137 z" /><g
       id="g29127"
       transform="translate(-49.997598,-32.685822)"><path
         id="path22346"
         style="fill:#d9420b;fill-opacity:1;stroke:#d9420b;stroke-width:1.265;stroke-linejoin:miter;stroke-dasharray:none;stroke-opacity:1"
         d="m 104.36521,203.04549 -19.375049,5.1e-4 c 0,0 -3.680482,9.93397 1.07487,17.09922 4.755351,7.16525 18.300179,22.3914 18.300179,22.3914 z m 1.26503,0 v 39.49113 c 0,0 13.54482,-15.22615 18.30018,-22.3914 4.75535,-7.16525 1.07487,-17.09922 1.07487,-17.09922 z" /><path
         id="path22346-7"
         style="display:inline;fill:#f2780c;fill-opacity:1;stroke:#f2780c;stroke-width:0.943772;stroke-linejoin:miter;stroke-dasharray:none;stroke-opacity:1"
         d="m 90.191394,203.23566 c 0,0 -2.724727,7.47021 0.7953,12.85813 3.520028,5.38791 13.546456,16.83721 13.546456,16.83721 v -29.69534 z m 15.278136,0 V 232.931 c 0,0 10.02592,-11.4493 13.54594,-16.83721 3.52003,-5.38792 0.79582,-12.85813 0.79582,-12.85813 z" /><path
         id="path22346-7-7"
         style="display:inline;fill:#f2bb13;fill-opacity:1;stroke:#f2bb13;stroke-width:0.719003;stroke-linejoin:miter;stroke-dasharray:none;stroke-opacity:1"
         d="m 93.586536,203.0119 c 0,0 -2.100757,5.62361 0.612882,9.68003 2.713639,4.0564 10.443292,12.67623 10.443292,12.67623 V 203.0119 Z m 11.778094,0 v 22.35626 c 0,0 7.72913,-8.61983 10.44277,-12.67623 2.71364,-4.05642 0.6134,-9.68003 0.6134,-9.68003 z" /></g><rect
       style="display:inline;fill:#000000;fill-opacity:1;stroke:#000000;stroke-width:2.765;stroke-linejoin:round;stroke-dasharray:none;stroke-opacity:1"
       id="rect16604"
       width="46.348591"
       height="0.00016"
       x="31.827892"
       y="169.47169"
       ry="7.9999998e-05" /><circle
       style="display:inline;fill:#ff4d3c;fill-opacity:1;stroke:#ff4d3c;stroke-width:1.265;stroke-linejoin:round;stroke-dasharray:none;stroke-opacity:1"
       id="path14615"
       cx="55"
       cy="147.9855"
       r="4.8930092" /><path
       style="display:inline;fill:#ff4d3c;fill-opacity:1;stroke:#ff4d3c;stroke-width:1.265;stroke-linejoin:round;stroke-dasharray:none;stroke-opacity:1"
       d="m 50.106992,147.9855 4.8952,40.86071 4.89081,-40.86071"
       id="path14617" /><path
       id="path7534"
       style="display:inline;fill:#ff4d3c;fill-opacity:1;stroke-width:0.264583"
       d="m 55.002202,18.486561 c -4.550709,7.992522 -8.377718,16.063006 -11.586892,24.096203 2.9e-4,-1.5e-4 0.09446,-0.04848 0.270784,-0.133325 0.176596,-0.08498 0.434833,-0.206203 0.762228,-0.350883 0.327393,-0.14468 0.723756,-0.312859 1.176155,-0.49196 0.2262,-0.08955 0.466205,-0.182019 0.718819,-0.275435 0.252616,-0.09342 0.517946,-0.188032 0.79375,-0.282153 0.275806,-0.09412 0.562057,-0.187904 0.857829,-0.27957 0.295773,-0.09167 0.601125,-0.181116 0.913639,-0.267167 0.312514,-0.08605 0.632567,-0.168703 0.958598,-0.24598 0.32603,-0.07728 0.65793,-0.149115 0.99425,-0.214457 0.33633,-0.06534 0.67671,-0.123902 1.0201,-0.17415 0.3434,-0.05025 0.6899,-0.09203 1.03714,-0.124023 0.34724,-0.03199 0.69548,-0.05453 1.04335,-0.06511 0.34786,-0.01058 0.69499,-0.0093 1.04025,0.0047 v 5.16e-4 c 0.34526,-0.014 0.69238,-0.01577 1.04024,-0.0052 0.34787,0.0106 0.69611,0.03311 1.04335,0.06511 0.34724,0.03202 0.69375,0.07372 1.03715,0.124023 0.34339,0.05025 0.68376,0.10885 1.02009,0.17415 0.33633,0.06534 0.66821,0.137157 0.994249,0.214457 0.326031,0.07728 0.64609,0.15988 0.958601,0.24598 0.31252,0.08605 0.617869,0.175467 0.91364,0.267167 0.295779,0.09166 0.58203,0.18547 0.85783,0.27957 0.27581,0.09412 0.54114,0.188753 0.79375,0.282153 0.25262,0.09341 0.49262,0.185835 0.71882,0.275435 0.4524,0.17911 0.84876,0.34728 1.17616,0.49196 0.32738,0.14468 0.58562,0.265883 0.76222,0.350883 0.17628,0.08482 0.2705,0.133175 0.27079,0.133325 -3.20918,-8.033192 -7.03619,-16.103681 -11.58689,-24.096203 z" /><g
       id="g29138"
       transform="translate(-49.997598,-32.685822)"><ellipse
         style="display:inline;fill:#00ffff;fill-opacity:1;stroke:none;stroke-width:0.264999;stroke-dasharray:none;stroke-opacity:1"
         id="path9072"
         cx="105"
         cy="112.7279"
         rx="9.6691198"
         ry="9.6689138" /><circle
         style="display:inline;fill:#ffffff;fill-opacity:1;stroke:none;stroke-width:0.264999;stroke-dasharray:none;stroke-opacity:1"
         id="path11175"
         cx="109.18064"
         cy="108.06107"
         r="1.3434862" /></g></g></svg>
